<?xml version="1.0" encoding="UTF-8" standalone="no"?>
<svg
   xmlns:dc="http://purl.org/dc/elements/1.1/"
   xmlns:cc="http://creativecommons.org/ns#"
   xmlns:rdf="http://www.w3.org/1999/02/22-rdf-syntax-ns#"
   xmlns:svg="http://www.w3.org/2000/svg"
   xmlns="http://www.w3.org/2000/svg"
   viewBox="0 0 133.33333 81.426666"
   height="81.426666"
   width="133.33333"
   xml:space="preserve"
   id="svg2"
   version="1.1"><metadata
     id="metadata8"><rdf:RDF><cc:Work
         rdf:about=""><dc:format>image/svg+xml</dc:format><dc:type
           rdf:resource="http://purl.org/dc/dcmitype/StillImage" /><dc:title></dc:title></cc:Work></rdf:RDF></metadata><defs
     id="defs6" /><g
     transform="matrix(1.3333333,0,0,-1.3333333,0,81.426667)"
     id="g10"><g
       transform="scale(0.1)"
       id="g12"><path
         id="path14"
         style="fill:#100f0d;fill-opacity:1;fill-rule:nonzero;stroke:none"
         d="m 825.137,293.672 c 87.843,0 159.082,70.961 159.082,158.519 0,87.536 -71.239,158.524 -159.082,158.524 -87.91,0 -159.16,-70.988 -159.16,-158.524 0,-87.558 71.25,-158.519 159.16,-158.519" /><path
         id="path16"
         style="fill:#100f0d;fill-opacity:1;fill-rule:nonzero;stroke:none"
         d="m 466.695,264.309 c 79.067,0 143.207,63.882 143.207,142.668 0,78.816 -64.14,142.695 -143.207,142.695 -79.105,0 -143.222,-63.879 -143.222,-142.695 0,-78.786 64.117,-142.668 143.222,-142.668" /><path
         id="path18"
         style="fill:#100f0d;fill-opacity:1;fill-rule:nonzero;stroke:none"
         d="m 141.645,237.891 c 71.175,0 128.898,57.453 128.898,128.359 0,70.938 -57.723,128.406 -128.898,128.406 -71.1958,0 -128.8911,-57.468 -128.8911,-128.406 0,-70.906 57.6953,-128.359 128.8911,-128.359" /><path
         id="path20"
         style="fill:#100f0d;fill-opacity:1;fill-rule:nonzero;stroke:none"
         d="M 141.648,208.574 C 59.9219,208.574 0,136.836 0,62.7266 V 12.8438 C 0,5.79297 5.76953,0 12.8711,0 H 270.391 c 7.125,0 12.894,5.79297 12.894,12.8438 v 49.8828 c 0,74.1094 -59.906,145.8474 -141.637,145.8474" /><path
         id="path22"
         style="fill:#100f0d;fill-opacity:1;fill-rule:nonzero;stroke:none"
         d="m 466.688,231.777 c -90.809,0 -157.403,-79.714 -157.403,-162.07 V 14.2773 C 309.285,6.4375 315.703,0 323.594,0 h 286.152 c 7.93,0 14.336,6.4375 14.336,14.2773 V 69.707 c 0,82.356 -66.582,162.07 -157.394,162.07" /><path
         id="path24"
         style="fill:#100f0d;fill-opacity:1;fill-rule:nonzero;stroke:none"
         d="M 825.117,257.52 C 724.219,257.52 650.234,168.953 650.234,77.4414 V 15.8594 C 650.234,7.14844 657.363,0 666.133,0 h 317.93 C 992.871,0 1000,7.14844 1000,15.8594 v 61.582 C 1000,168.953 926.023,257.52 825.117,257.52" /></g></g></svg>